<?xml version="1.0" encoding="iso-8859-1"?>
<!-- Generator: Adobe Illustrator 20.0.0, SVG Export Plug-In . SVG Version: 6.00 Build 0)  -->
<svg version="1.1" id="Layer_1_1_" xmlns="http://www.w3.org/2000/svg" xmlns:xlink="http://www.w3.org/1999/xlink" x="0px" y="0px"
	 viewBox="0 0 64 64" style="enable-background:new 0 0 64 64;" xml:space="preserve">
<g id="Guide">
	<g>
	</g>
	<g>
	</g>
	<g>
	</g>
	<g>
	</g>
	<g>
	</g>
	<g>
	</g>
	<g>
	</g>
	<g>
	</g>
	<g>
	</g>
	<g>
	</g>
	<g>
	</g>
	<g>
	</g>
	<g>
	</g>
	<g>
	</g>
	<g>
	</g>
	<g>
	</g>
	<g>
	</g>
	<g>
	</g>
	<g>
	</g>
	<g>
	</g>
	<g>
	</g>
	<g>
	</g>
	<g>
	</g>
	<g>
	</g>
	<g>
	</g>
	<g>
	</g>
	<g>
	</g>
	<g>
	</g>
	<g>
	</g>
	<g>
	</g>
	<g>
	</g>
	<g>
	</g>
	<g>
	</g>
	<g>
	</g>
	<g>
	</g>
	<g>
	</g>
</g>
<path d="M22,6v3c-0.552,0-1,0.447-1,1v4c0,0.553,0.448,1,1,1h3v14H1c-0.552,0-1,0.447-1,1v12c0,9.036,7.092,16.427,16,16.949V63
	c0,0.553,0.448,1,1,1h30c0.552,0,1-0.447,1-1v-4.051C56.908,58.427,64,51.036,64,42V30c0-0.553-0.448-1-1-1H43V15h21v-2H43v-2h21V9
	H42.816C42.402,7.839,41.302,7,40,7c-0.771,0-1.468,0.301-2,0.78C37.468,7.301,36.771,7,36,7s-1.468,0.301-2,0.78
	C33.468,7.301,32.771,7,32,7s-1.468,0.301-2,0.78C29.468,7.301,28.771,7,28,7c-1.302,0-2.402,0.839-2.816,2H24V7h4h4h4h4h24V5H23
	C22.448,5,22,5.447,22,6z M23,13v-2h2v2H23z M46,62H18v-3h28V62z M62,42c0,8.271-6.729,15-15,15H17C8.729,57,2,50.271,2,42V31h60V42
	z M40,9c0.551,0,1,0.448,1,1v19h-2V10C39,9.448,39.449,9,40,9z M36,9c0.551,0,1,0.448,1,1v19h-2V10C35,9.448,35.449,9,36,9z M32,9
	c0.551,0,1,0.448,1,1v19h-2V10C31,9.448,31.449,9,32,9z M28,9c0.551,0,1,0.448,1,1v19h-2V10C27,9.448,27.449,9,28,9z"/>
<path d="M10,21c0,0.552-0.449,1-1,1H5c-1.654,0-3,1.346-3,3v2h2v-2c0-0.552,0.449-1,1-1h4c1.654,0,3-1.346,3-3v-2h-2V21z"/>
<path d="M20,22h-4c-1.654,0-3,1.346-3,3v2h2v-2c0-0.552,0.449-1,1-1h4c1.654,0,3-1.346,3-3v-2h-2v2C21,21.552,20.551,22,20,22z"/>
<path d="M52,22h-4c-1.654,0-3,1.346-3,3v2h2v-2c0-0.552,0.449-1,1-1h4c1.654,0,3-1.346,3-3v-2h-2v2C53,21.552,52.551,22,52,22z"/>
<rect x="5" y="33" width="2" height="2"/>
<rect x="9" y="33" width="2" height="2"/>
<rect x="13" y="33" width="2" height="2"/>
<rect x="17" y="33" width="2" height="2"/>
<rect x="21" y="33" width="2" height="2"/>
<rect x="25" y="33" width="2" height="2"/>
<rect x="29" y="33" width="2" height="2"/>
<rect x="33" y="33" width="2" height="2"/>
<rect x="37" y="33" width="2" height="2"/>
<rect x="41" y="33" width="2" height="2"/>
<rect x="45" y="33" width="2" height="2"/>
<rect x="49" y="33" width="2" height="2"/>
<rect x="53" y="33" width="2" height="2"/>
<rect x="57" y="33" width="2" height="2"/>
<rect x="7" y="35" width="2" height="2"/>
<rect x="3" y="35" width="2" height="2"/>
<rect x="11" y="35" width="2" height="2"/>
<rect x="15" y="35" width="2" height="2"/>
<rect x="19" y="35" width="2" height="2"/>
<rect x="23" y="35" width="2" height="2"/>
<rect x="27" y="35" width="2" height="2"/>
<rect x="31" y="35" width="2" height="2"/>
<rect x="35" y="35" width="2" height="2"/>
<rect x="39" y="35" width="2" height="2"/>
<rect x="43" y="35" width="2" height="2"/>
<rect x="47" y="35" width="2" height="2"/>
<rect x="51" y="35" width="2" height="2"/>
<rect x="55" y="35" width="2" height="2"/>
<rect x="59" y="35" width="2" height="2"/>
</svg>
